# xmcd
#
# Track frame offsets: 
#        150
#        20287
#        41450
#        59237
#        80495
#        96015
#        109072
#        129490
#        150320
#        170937
#        188015
#        206437
#        226512
#        243580
#        259140
#        276637
#
# Disc length: 3975 seconds
#
# Revision: 1
# Processed by: cddbd v1.5.2PL0 Copyright (c) Steve Scherf et al.
# Submitted via: ExactAudioCopy v0.95a5
#
DISCID=d90f8510
DTITLE=Various Artist - SOUL BALLAD COLLECTION
DYEAR=1900
DGENRE=R&B
TTITLE0=Earth, Wind and Fire - After The Love Is Gone
TTITLE1=Mahattans - Shining Star
TTITLE2=Bill Withers - Just The Two Of Us
TTITLE3=Philip Bailey - Show You The Way To Love
TTITLE4=Harold Melvin and The Blue Notes - If You Don't Know Me By Now
TTITLE5=Johnny Mathis and Deniece Williams - Too Much, Too Little, Too L
TTITLE5=ate
TTITLE6=Ramsey Lewis and Nancy Wilson - The Two Of Us
TTITLE7=Champaign - How 'Bout Us
TTITLE8=Maurice White - I Need You
TTITLE9=Champaign - Try Again
TTITLE10=Gregory Abbott - Shake You Down
TTITLE11=Manhattans - Kiss And Say Goodbye
TTITLE12=Marvin Gaye - Dream Of A Lifetime
TTITLE13=Luther Vandross (With Dionne Warwick) - How Many Times Can We
TTITLE13=Say Goodbye
TTITLE14=Ramsey Lewis and Nancy Wilson - Midnight Rendezvous
TTITLE15=Billy Paul - Me And Mrs. Jones
EXTD=
EXTT0=
EXTT1=
EXTT2=
EXTT3=
EXTT4=
EXTT5=
EXTT6=
EXTT7=
EXTT8=
EXTT9=
EXTT10=
EXTT11=
EXTT12=
EXTT13=
EXTT14=
EXTT15=
PLAYORDER=
